#!OML:ASF \\Waltz\H\Terrain\Patient Classification 1\Animal2\Wednesday\Animal2.ASF
:FULLY-SPECIFIED
:DEGREES
3018
root 9.76232 18.0356 -5.50774 6.84605 7.16882 -8.93779
lowerback 14.2898 -4.57091 -1.18567
upperback -2.99023 -6.27487 0.621731
thorax -11.084 -2.8759 2.81215
lowerneck 10.8441 18.1209 20.2179
upperneck -17.884 24.016 -35.8469
head 0.71105 13.6165 -14.071
rclavicle -1.74931e-014 7.95139e-015
rhumerus 0.313158 -29.113 2.071
rradius 26.3206
rwrist 24.8485
rhand -15.0649 18.2838
rfingers 7.12502
rthumb 11.1022 -11.4026
lclavicle -1.74931e-014 7.95139e-015
lhumerus -8.91776 -26.7274 24.0551
lradius 30.1773
lwrist 46.4592
lhand -20.7811 33.0462
lfingers 7.12502
lthumb 5.58574 62.9525
rfemur -44.8875 -21.133 26.85
rtibia 80.0781
rfoot -0.0793047 1.58364
rtoes 2.83558
lfemur -26.7069 30.6221 -5.62276
ltibia 35.9451
lfoot -4.90677 6.07767
ltoes -23.0221
3019
root 9.85895 17.8906 -5.51154 6.83506 7.18816 -8.71735
lowerback 14.5696 -4.50752 -1.55483
upperback -3.13525 -6.27687 0.521087
thorax -11.3835 -2.84438 2.94428
lowerneck 11.2572 17.9434 20.0531
upperneck -18.0941 23.7458 -35.6835
head 0.454887 13.5177 -14.1359
rclavicle 6.67916e-014 -3.18055e-015
rhumerus -0.0288192 -28.3956 2.54085
rradius 26.5575
rwrist 24.6087
rhand -15.4797 18.1162
rfingers 7.12502
rthumb 10.7021 -11.5912
lclavicle 6.67916e-014 -3.18055e-015
lhumerus -9.26573 -27.866 25.3104
lradius 31.0586
lwrist 47.8295
lhand -21.1214 33.6292
lfingers 7.12502
lthumb 5.25717 63.5439
rfemur -45.8516 -21.0255 27.3022
rtibia 81.2699
rfoot -1.48678 1.48555
rtoes -2.03039
lfemur -27.1288 31.0045 -6.2836
ltibia 36.9679
lfoot -8.16249 5.3993
ltoes -19.6166
3020
root 9.94322 17.7487 -5.51321 6.81942 7.24136 -8.45461
lowerback 14.9065 -4.46584 -2.02042
upperback -3.22763 -6.34177 0.312493
thorax -11.6578 -2.83967 3.02905
lowerneck 11.364 17.8594 20.1346
upperneck -18.1867 23.6366 -35.5669
head 0.371571 13.4608 -14.1546
rclavicle 6.48038e-014 6.36111e-015
rhumerus -0.572479 -27.7858 2.79686
rradius 26.967
rwrist 24.1944
rhand -15.6684 18.0772
rfingers 7.12502
rthumb 10.52 -11.6396
lclavicle 6.48038e-014 6.36111e-015
lhumerus -9.56675 -29.561 26.2245
lradius 32.2533
lwrist 50.1307
lhand -21.4326 34.6824
lfingers 7.12502
lthumb 4.95665 64.6044
rfemur -46.7625 -20.7116 27.6919
rtibia 82.3897
rfoot -2.6997 1.02607
rtoes -1.7608
lfemur -27.6646 31.2517 -6.9671
ltibia 38.0688
lfoot -11.3893 5.13771
ltoes -18.4274
3021
root 10.0183 17.6085 -5.51863 6.79322 7.31096 -8.33652
lowerback 15.3084 -4.48974 -2.46896
upperback -3.23178 -6.48961 0.150758
thorax -11.862 -2.87469 3.17547
lowerneck 11.2304 17.8811 20.2952
upperneck -18.2989 23.6498 -35.587
head 0.394952 13.4537 -14.1649
rclavicle 5.88403e-014 1.59028e-015
rhumerus -0.922089 -27.4213 2.76545
rradius 27.3154
rwrist 23.6111
rhand -15.7979 18.1645
rfingers 7.12502
rthumb 10.3951 -11.5585
lclavicle 5.88403e-014 1.59028e-015
lhumerus -9.9578 -30.9259 27.0013
lradius 33.5699
lwrist 52.4489
lhand -21.6765 35.4601
lfingers 7.12502
lthumb 4.72116 65.3875
rfemur -47.6741 -20.2367 28.2514
rtibia 83.3878
rfoot -3.90658 0.632481
rtoes 1.24003
lfemur -28.326 31.3672 -7.48689
ltibia 39.3038
lfoot -13.8458 5.5854
ltoes -19.9526
3022
root 10.092 17.4783 -5.52916 6.83663 7.57063 -8.38262
lowerback 15.6227 -4.57679 -2.69061
upperback -3.22283 -6.66857 0.0691143
thorax -12.0121 -2.93888 3.28269
lowerneck 11.1939 17.8734 20.2838
upperneck -18.5721 23.5673 -35.6172
head 0.309298 13.4227 -14.2049
rclavicle -5.9039e-014 2.22639e-014
rhumerus -1.25772 -27.4857 2.65198
rradius 27.6164
rwrist 23.4143
rhand -16.0332 18.0785
rfingers 7.12502
rthumb 10.1681 -11.6557
lclavicle -5.9039e-014 2.22639e-014
lhumerus -10.393 -31.8495 27.8533
lradius 34.9247
lwrist 53.9125
lhand -22.0025 34.9778
lfingers 7.12502
lthumb 4.40636 64.912
rfemur -48.6415 -19.86 29.0647
rtibia 84.2203
rfoot -5.13681 0.377085
rtoes 3.18459
lfemur -29.4681 31.6108 -7.96408
ltibia 40.9853
lfoot -14.7387 6.58211
ltoes -26.7108
3023
root 10.156 17.4015 -5.53352 7.01123 7.84558 -8.23078
lowerback 15.6851 -4.59338 -3.07603
upperback -3.21692 -6.78606 -0.0694551
thorax -12.0085 -2.97212 3.37827
lowerneck 11.3989 17.7438 20.0114
upperneck -19.0752 23.2472 -35.6055
head 0.00999299 13.3118 -14.3072
rclavicle -6.57977e-014 -1.59028e-015
rhumerus -1.85367 -27.5022 2.68385
rradius 27.9856
rwrist 23.1432
rhand -16.3181 17.8074
rfingers 7.12502
rthumb 9.89325 -11.9401
lclavicle -6.57977e-014 -1.59028e-015
lhumerus -10.631 -32.751 28.7567
lradius 36.2589
lwrist 55.1576
lhand -22.2882 34.801
lfingers 7.12502
lthumb 4.13048 64.7407
rfemur -49.4449 -19.4865 29.7639
rtibia 84.64
rfoot -6.30375 -0.0400492
rtoes 3.48986
lfemur -31.013 32.1971 -8.70291
ltibia 43.0739
lfoot -15.3318 6.4832
ltoes -29.4429
3024
root 10.2106 17.2913 -5.53769 7.24684 8.03088 -8.03571
lowerback 15.6332 -4.57246 -3.58472
upperback -3.17957 -6.87809 -0.259951
thorax -11.8952 -2.99242 3.46494
lowerneck 11.5841 17.5725 19.8203
upperneck -19.603 22.8715 -35.6564
head -0.28464 13.174 -14.454
rclavicle 2.00773e-014 1.43125e-014
rhumerus -2.53357 -27.2678 2.66612
rradius 28.2706
rwrist 22.5836
rhand -16.8227 17.7396
rfingers 7.12502
rthumb 9.40639 -12.0305
lclavicle 2.00773e-014 1.43125e-014
lhumerus -10.7341 -33.8974 29.5236
lradius 37.6504
lwrist 56.8278
lhand -22.3823 35.2561
lfingers 7.12502
lthumb 4.03964 65.1976
rfemur -50.4582 -18.9158 30.4295
rtibia 85.1474
rfoot -7.61808 -0.766901
rtoes 3.78747
lfemur -33.0095 32.9626 -9.34898
ltibia 45.7114
lfoot -16.6932 3.98383
ltoes -19.8722
3025
root 10.2626 17.1755 -5.5382 7.32574 8.34005 -8.25309
lowerback 15.6412 -4.64429 -3.59539
upperback -3.09418 -6.98912 -0.408051
thorax -11.8134 -3.05426 3.33162
lowerneck 11.5695 17.4729 19.705
upperneck -19.8136 22.6569 -35.5342
head -0.436012 13.0705 -14.4611
rclavicle 3.08116e-014 1.27222e-014
rhumerus -3.30608 -26.9892 2.51009
rradius 28.5621
rwrist 22.1416
rhand -17.4564 17.6211
rfingers 7.12502
rthumb 8.79491 -12.1757
lclavicle 3.08116e-014 1.27222e-014
lhumerus -10.8038 -35.1553 30.1535
lradius 39.0037
lwrist 58.7199
lhand -22.3101 35.4643
lfingers 7.12502
lthumb 4.10935 65.4045
rfemur -51.1432 -18.3335 31.4731
rtibia 85.4737
rfoot -9.31068 -1.73849
rtoes 4.12726
lfemur -35.0047 33.7133 -9.42664
ltibia 48.556
lfoot -17.9155 1.37616
ltoes -11.1152
3026
root 10.3202 17.0532 -5.53284 7.27033 8.7024 -8.56715
lowerback 15.6686 -4.75591 -3.35239
upperback -3.0017 -7.10747 -0.59397
thorax -11.7711 -3.13698 3.02185
lowerneck 11.7547 17.379 19.515
upperneck -19.9864 22.4788 -35.2498
head -0.641489 12.9877 -14.4201
rclavicle 5.06901e-014 2.8625e-014
rhumerus -3.99648 -27.0081 2.24868
rradius 28.6412
rwrist 22.1314
rhand -18.1954 17.4753
rfingers 7.12502
rthumb 8.08176 -12.3502
lclavicle 5.06901e-014 2.8625e-014
lhumerus -10.9256 -36.413 30.7752
lradius 40.2924
lwrist 60.441
lhand -22.1648 35.3658
lfingers 7.12502
lthumb 4.24968 65.3032
rfemur -51.5863 -17.9687 32.5697
rtibia 85.7068
rfoot -11.0732 -2.55442
rtoes 3.46344
lfemur -36.783 34.3325 -9.37447
ltibia 51.4487
lfoot -19.105 -0.187776
ltoes -8.3547
3027
root 10.3789 16.9349 -5.52983 7.16772 9.01072 -8.80141
lowerback 15.7785 -4.75464 -3.24894
upperback -2.68317 -7.09695 -0.808821
thorax -11.5166 -3.15954 2.72115
lowerneck 10.927 17.4122 19.3997
upperneck -19.8393 22.4183 -35.1054
head -0.515501 12.89 -14.2396
rclavicle 1.25234e-014 -4.77083e-014
rhumerus -4.74121 -27.5425 2.16132
rradius 28.4375
rwrist 22.1984
rhand -18.8861 17.6523
rfingers 7.12502
rthumb 7.41511 -12.1977
lclavicle 1.25234e-014 -4.77083e-014
lhumerus -10.5738 -37.6993 31.0891
lradius 41.7263
lwrist 62.262
lhand -22.1793 35.6125
lfingers 7.12502
lthumb 4.23564 65.5501
rfemur -52.0035 -17.6294 33.5624
rtibia 85.9071
rfoot -12.6633 -3.19903
rtoes 3.12059
lfemur -38.2572 34.7532 -9.37251
ltibia 54.0596
lfoot -20.1681 -1.50058
ltoes -5.29694
3028
root 10.4315 16.827 -5.52923 6.99171 9.26393 -9.23641
lowerback 15.9322 -4.85031 -3.01434
upperback -2.50204 -7.18531 -0.904398
thorax -11.4386 -3.22382 2.51498
lowerneck 10.9475 17.3521 19.3197
upperneck -19.861 22.2986 -35.1804
head -0.55439 12.8448 -14.2871
rclavicle 2.42517e-014 2.06736e-014
rhumerus -5.02469 -27.1976 1.88548
rradius 28.2455
rwrist 21.9013
rhand -19.2043 17.7975
rfingers 7.12502
rthumb 7.1079 -12.0631
lclavicle 2.42517e-014 2.06736e-014
lhumerus -10.9429 -39.1189 31.7418
lradius 43.1655
lwrist 63.8021
lhand -22.1947 35.9498
lfingers 7.12502
lthumb 4.22074 65.8877
rfemur -52.3216 -17.075 34.7773
rtibia 85.9929
rfoot -14.2663 -4.33884
rtoes 3.33
lfemur -39.4757 35.1809 -9.08709
ltibia 56.3004
lfoot -20.8832 -2.99576
ltoes -0.82579
3029
root 10.483 16.7144 -5.52914 6.86562 9.40859 -9.73225
lowerback 16.1173 -4.8848 -2.71367
upperback -2.43053 -7.1829 -0.979092
thorax -11.5135 -3.24193 2.28332
lowerneck 10.9631 17.3285 19.2109
upperneck -19.5982 22.2899 -35.0977
head -0.517839 12.8317 -14.2303
rclavicle -6.34123e-014 -6.36111e-015
rhumerus -5.21816 -27.1863 1.62046
rradius 27.791
rwrist 22.3004
rhand -19.2145 18.2222
rfingers 7.12502
rthumb 7.09813 -11.6388
lclavicle -6.34123e-014 -6.36111e-015
lhumerus -11.2921 -40.4564 32.5508
lradius 44.3733
lwrist 64.7871
lhand -21.8032 35.097
lfingers 7.12502
lthumb 4.59878 65.0271
rfemur -52.7302 -16.3931 36.0592
rtibia 86
rfoot -15.8742 -5.48331
rtoes 3.88147
lfemur -40.6472 35.8416 -8.84284
ltibia 58.2196
lfoot -21.4903 -3.44218
ltoes -1.32865
3030
root 10.5384 16.6024 -5.52794 6.86603 9.48279 -9.87589
lowerback 16.3399 -4.85083 -2.73713
upperback -2.36984 -7.16038 -1.09714
thorax -11.5894 -3.23031 2.1814
lowerneck 10.5088 17.3963 18.9471
upperneck -19.1554 22.3583 -34.9932
head -0.355188 12.8229 -14.0498
rclavicle 4.05521e-014 6.67916e-014
rhumerus -5.37239 -27.8343 1.42526
rradius 27.2225
rwrist 23.4001
rhand -19.0449 18.9337
rfingers 7.12502
rthumb 7.26184 -10.9217
lclavicle 4.05521e-014 6.67916e-014
lhumerus -11.4227 -41.7434 33.3619
lradius 45.577
lwrist 65.9939
lhand -21.4068 34.3278
lfingers 7.12502
lthumb 4.98155 64.2493
rfemur -53.2135 -15.7867 36.8682
rtibia 85.9878
rfoot -17.4719 -5.73253
rtoes 4.49522
lfemur -41.77 36.5463 -9.09526
ltibia 59.8867
lfoot -22.2465 -2.8332
ltoes -7.71841
